# Blender v2.78 (sub 0) OBJ File: ''
# www.blender.org
mtllib model.mtl
o Plane
v -1.000000 -1.000000 0.000000
v -1.000000 1.000000 0.000000
v 1.000000 -1.000000 -0.000000
v 1.000000 1.000000 -0.000000
v -0.000000 -1.000000 0.000000
v -1.000000 0.000000 0.000000
v 0.000000 1.000000 0.000000
v 1.000000 -0.000000 -0.000000
v 0.000000 0.000000 0.000000
v -0.500000 -1.000000 0.000000
v -1.000000 0.500000 0.000000
v 0.500000 1.000000 -0.000000
v 1.000000 -0.500000 -0.000000
v 0.500000 -1.000000 -0.000000
v -1.000000 -0.500000 0.000000
v -0.500000 1.000000 0.000000
v 1.000000 0.500000 -0.000000
v -0.500000 0.500000 0.000000
v -0.500000 -0.500000 0.000000
v 0.500000 -0.500000 -0.000000
v 0.500000 0.500000 -0.000000
v 0.250000 -1.000000 -0.000000
v -1.000000 -0.250000 0.000000
v -0.250000 1.000000 0.000000
v 1.000000 0.250000 -0.000000
v 0.750000 -0.000000 -0.000000
v -0.250000 0.000000 0.000000
v -0.000000 -0.750000 0.000000
v 0.000000 0.250000 0.000000
v -0.250000 -1.000000 0.000000
v -1.000000 0.250000 0.000000
v 0.250000 1.000000 -0.000000
v 1.000000 -0.250000 -0.000000
v 0.250000 -0.000000 -0.000000
v -0.750000 0.000000 0.000000
v -0.000000 -0.250000 0.000000
v 0.000000 0.750000 0.000000
v -0.250000 0.500000 0.000000
v -0.750000 0.500000 0.000000
v -0.500000 0.250000 0.000000
v -0.500000 0.750000 0.000000
v -0.250000 -0.500000 0.000000
v -0.750000 -0.500000 0.000000
v -0.500000 -0.750000 0.000000
v -0.500000 -0.250000 0.000000
v 0.750000 -0.500000 -0.000000
v 0.250000 -0.500000 -0.000000
v 0.500000 -0.750000 -0.000000
v 0.500000 -0.250000 -0.000000
v 0.750000 0.500000 -0.000000
v 0.250000 0.500000 -0.000000
v 0.500000 0.250000 -0.000000
v 0.500000 0.750000 -0.000000
v 0.250000 0.750000 -0.000000
v 0.250000 0.250000 -0.000000
v 0.750000 0.250000 -0.000000
v 0.250000 -0.250000 -0.000000
v 0.250000 -0.750000 -0.000000
v -0.750000 -0.250000 0.000000
v -0.250000 -0.750000 0.000000
v -0.750000 0.250000 0.000000
v -0.250000 0.250000 0.000000
v -0.250000 0.750000 0.000000
v -0.250000 -0.250000 0.000000
v 0.750000 -0.250000 -0.000000
vn -0.0000 0.0000 -1.0000
usemtl None
s off
f 53//1 12//1 4//1 17//1 50//1
f 65//1 26//1 8//1 33//1
f 64//1 27//1 9//1 36//1
f 63//1 24//1 7//1 37//1
f 61//1 39//1 18//1 40//1
f 39//1 41//1 18//1
f 44//1 43//1 19//1
f 48//1 20//1 46//1
f 58//1 47//1 20//1 48//1
f 56//1 50//1 17//1 25//1
f 55//1 51//1 21//1 52//1
f 54//1 32//1 12//1 53//1
f 51//1 54//1 53//1 21//1
f 37//1 7//1 32//1 54//1
f 9//1 29//1 55//1 34//1
f 26//1 56//1 25//1 8//1
f 52//1 21//1 50//1 56//1
f 47//1 57//1 49//1 20//1
f 36//1 9//1 34//1 57//1
f 22//1 58//1 48//1 14//1
f 5//1 28//1 58//1 22//1
f 14//1 48//1 46//1 13//1 3//1
f 43//1 59//1 45//1 19//1
f 15//1 23//1 59//1 43//1
f 23//1 6//1 35//1 59//1
f 1//1 15//1 43//1 44//1 10//1
f 30//1 60//1 28//1 5//1
f 10//1 44//1 60//1 30//1
f 44//1 19//1 42//1 60//1
f 11//1 2//1 16//1 41//1 39//1
f 6//1 31//1 61//1 35//1
f 31//1 11//1 39//1 61//1
f 27//1 62//1 29//1 9//1
f 40//1 18//1 38//1 62//1
f 18//1 41//1 63//1 38//1
f 41//1 16//1 24//1 63//1
f 19//1 45//1 64//1 42//1
f 46//1 65//1 33//1 13//1
f 20//1 49//1 65//1 46//1
f 21//1 53//1 50//1
